{"accessors" : [{"bufferView" : 0, "byteOffset" : 0, "componentType" : 5123, "count" : 173562, "type" : "SCALAR", "max" : [31067], "min" : [0]}, {"bufferView" : 1, "byteOffset" : 0, "componentType" : 5126, "count" : 31068, "type" : "VEC3", "max" : [0.24669800698757172, 0.3345699906349182, 0.6000000238418579], "min" : [-0.24669800698757172, -0.3345699906349182, -0.6000000238418579], "name" : "POSITION"}, {"bufferView" : 1, "byteOffset" : 12, "componentType" : 5126, "count" : 31068, "type" : "VEC2", "max" : [1, 0.9916989803314209], "min" : [0, 0], "name" : "TEXCOORD_0"}, {"bufferView" : 1, "byteOffset" : 20, "componentType" : 5126, "count" : 31068, "type" : "VEC3", "max" : [0.9999955296516418, 0.99998939037323, 0.9991387128829956], "min" : [-0.9999988675117493, -1.0000017881393433, -0.9999313950538635], "name" : "NORMAL"}], "asset" : {"generator" : "Aspose.3D 24.2.0", "version" : "2.0"}, "buffers" : [{"uri" : "buffer.bin", "byteLength" : 1341308}], "bufferViews" : [{"buffer" : 0, "byteOffset" : 0, "byteLength" : 347124, "target" : 34963}, {"buffer" : 0, "byteOffset" : 347128, "byteLength" : 994176, "byteStride" : 32, "target" : 34962}], "meshes" : [{"primitives" : [{"attributes" : {"POSITION" : 1, "TEXCOORD_0" : 2, "NORMAL" : 3}, "indices" : 0, "mode" : 4}], "name" : ""}], "nodes" : [{"mesh" : 0, "name" : "Mesh_0"}], "scene" : 0, "scenes" : [{"nodes" : [0]}]}