{
	"asset":{
		"generator":"Khronos glTF Blender I/O v4.1.63",
		"version":"2.0"
	},
	"extensionsUsed":[
		"KHR_materials_specular"
	],
	"scene":0,
	"scenes":[
		{
			"name":"Scene",
			"nodes":[
				7
			]
		}
	],
	"nodes":[
		{
			"mesh":0,
			"name":"Object_4"
		},
		{
			"mesh":1,
			"name":"Object_5"
		},
		{
			"mesh":2,
			"name":"Object_6"
		},
		{
			"mesh":3,
			"name":"Object_7"
		},
		{
			"children":[
				0,
				1,
				2,
				3
			],
			"name":"domo_0"
		},
		{
			"children":[
				4
			],
			"name":"GLTF_SceneRootNode",
			"rotation":[
				0.70710688829422,
				0,
				0,
				0.7071066498756409
			]
		},
		{
			"children":[
				5
			],
			"name":"root"
		},
		{
			"children":[
				6
			],
			"name":"Sketchfab_model",
			"rotation":[
				-0.70710688829422,
				0,
				0,
				0.7071066498756409
			]
		}
	],
	"materials":[
		{
			"doubleSided":true,
			"name":"casa",
			"pbrMetallicRoughness":{
				"baseColorTexture":{
					"index":0
				},
				"metallicFactor":0
			}
		},
		{
			"doubleSided":true,
			"name":"marco",
			"pbrMetallicRoughness":{
				"baseColorFactor":[
					0.11927399784326553,
					0.11927399784326553,
					0.11927399784326553,
					1
				],
				"roughnessFactor":0.3405799865722656
			}
		},
		{
			"alphaMode":"BLEND",
			"doubleSided":true,
			"extensions":{
				"KHR_materials_specular":{
					"specularFactor":0.9920030236244202
				}
			},
			"name":"windows",
			"pbrMetallicRoughness":{
				"baseColorFactor":[
					1,
					1,
					1,
					0.22400067746639252
				],
				"roughnessFactor":0.5165730118751526
			}
		},
		{
			"doubleSided":true,
			"name":"piso",
			"pbrMetallicRoughness":{
				"baseColorFactor":[
					0.22658400237560272,
					0.22658400237560272,
					0.22658400237560272,
					1
				],
				"metallicFactor":0,
				"roughnessFactor":0.2666674852371216
			}
		}
	],
	"meshes":[
		{
			"name":"Object_0",
			"primitives":[
				{
					"attributes":{
						"POSITION":0,
						"NORMAL":1,
						"TEXCOORD_0":2
					},
					"indices":3,
					"material":0
				}
			]
		},
		{
			"name":"Object_1",
			"primitives":[
				{
					"attributes":{
						"POSITION":4,
						"NORMAL":5,
						"TEXCOORD_0":6
					},
					"indices":7,
					"material":1
				}
			]
		},
		{
			"name":"Object_2",
			"primitives":[
				{
					"attributes":{
						"POSITION":8,
						"NORMAL":9,
						"TEXCOORD_0":10
					},
					"indices":11,
					"material":2
				}
			]
		},
		{
			"name":"Object_3",
			"primitives":[
				{
					"attributes":{
						"POSITION":12,
						"NORMAL":13,
						"TEXCOORD_0":14
					},
					"indices":15,
					"material":3
				}
			]
		}
	],
	"textures":[
		{
			"sampler":0,
			"source":0
		}
	],
	"images":[
		{
			"mimeType":"image/jpeg",
			"name":"casa_baseColor",
			"uri":"casa_baseColor.jpg"
		}
	],
	"accessors":[
		{
			"bufferView":0,
			"componentType":5126,
			"count":307,
			"max":[
				0.9999997019767761,
				0.9807852506637573,
				0.9999993443489075
			],
			"min":[
				-0.9999990463256836,
				-0.197384774684906,
				-1.3727247714996338
			],
			"type":"VEC3"
		},
		{
			"bufferView":1,
			"componentType":5126,
			"count":307,
			"type":"VEC3"
		},
		{
			"bufferView":2,
			"componentType":5126,
			"count":307,
			"type":"VEC2"
		},
		{
			"bufferView":3,
			"componentType":5123,
			"count":1524,
			"type":"SCALAR"
		},
		{
			"bufferView":4,
			"componentType":5126,
			"count":188,
			"max":[
				0.980785071849823,
				0.3826834559440613,
				-0.18023990094661713
			],
			"min":[
				-0.9807842373847961,
				-0.18505707383155823,
				-1.3727247714996338
			],
			"type":"VEC3"
		},
		{
			"bufferView":5,
			"componentType":5126,
			"count":188,
			"type":"VEC3"
		},
		{
			"bufferView":6,
			"componentType":5126,
			"count":188,
			"type":"VEC2"
		},
		{
			"bufferView":7,
			"componentType":5123,
			"count":672,
			"type":"SCALAR"
		},
		{
			"bufferView":8,
			"componentType":5126,
			"count":81,
			"max":[
				0.9698787927627563,
				1,
				0.195090189576149
			],
			"min":[
				-0.9698780179023743,
				0.014681127853691578,
				-0.6909278631210327
			],
			"type":"VEC3"
		},
		{
			"bufferView":9,
			"componentType":5126,
			"count":81,
			"type":"VEC3"
		},
		{
			"bufferView":10,
			"componentType":5126,
			"count":81,
			"type":"VEC2"
		},
		{
			"bufferView":11,
			"componentType":5123,
			"count":168,
			"type":"SCALAR"
		},
		{
			"bufferView":12,
			"componentType":5126,
			"count":38,
			"max":[
				0.9807851314544678,
				-0.18133074045181274,
				0.9807849526405334
			],
			"min":[
				-0.9807848334312439,
				-0.197384774684906,
				-1.3727246522903442
			],
			"type":"VEC3"
		},
		{
			"bufferView":13,
			"componentType":5126,
			"count":38,
			"type":"VEC3"
		},
		{
			"bufferView":14,
			"componentType":5126,
			"count":38,
			"type":"VEC2"
		},
		{
			"bufferView":15,
			"componentType":5123,
			"count":102,
			"type":"SCALAR"
		}
	],
	"bufferViews":[
		{
			"buffer":0,
			"byteLength":3684,
			"byteOffset":0,
			"target":34962
		},
		{
			"buffer":0,
			"byteLength":3684,
			"byteOffset":3684,
			"target":34962
		},
		{
			"buffer":0,
			"byteLength":2456,
			"byteOffset":7368,
			"target":34962
		},
		{
			"buffer":0,
			"byteLength":3048,
			"byteOffset":9824,
			"target":34963
		},
		{
			"buffer":0,
			"byteLength":2256,
			"byteOffset":12872,
			"target":34962
		},
		{
			"buffer":0,
			"byteLength":2256,
			"byteOffset":15128,
			"target":34962
		},
		{
			"buffer":0,
			"byteLength":1504,
			"byteOffset":17384,
			"target":34962
		},
		{
			"buffer":0,
			"byteLength":1344,
			"byteOffset":18888,
			"target":34963
		},
		{
			"buffer":0,
			"byteLength":972,
			"byteOffset":20232,
			"target":34962
		},
		{
			"buffer":0,
			"byteLength":972,
			"byteOffset":21204,
			"target":34962
		},
		{
			"buffer":0,
			"byteLength":648,
			"byteOffset":22176,
			"target":34962
		},
		{
			"buffer":0,
			"byteLength":336,
			"byteOffset":22824,
			"target":34963
		},
		{
			"buffer":0,
			"byteLength":456,
			"byteOffset":23160,
			"target":34962
		},
		{
			"buffer":0,
			"byteLength":456,
			"byteOffset":23616,
			"target":34962
		},
		{
			"buffer":0,
			"byteLength":304,
			"byteOffset":24072,
			"target":34962
		},
		{
			"buffer":0,
			"byteLength":204,
			"byteOffset":24376,
			"target":34963
		}
	],
	"samplers":[
		{
			"magFilter":9729,
			"minFilter":9987
		}
	],
	"buffers":[
		{
			"byteLength":24580,
			"uri":"untitled6.bin"
		}
	]
}
